<svg width="178" height="66" viewBox="0 0 178 66" fill="none" xmlns="http://www.w3.org/2000/svg">
<g clip-path="url(#clip0_541_17114)">
<path d="M18.5193 39.645C20.0961 47.4163 36.3145 52.8225 41.608 39.3071C38.4544 43.587 28.6558 50.0068 18.5193 39.645Z" fill="#101010"/>
<path d="M74.2941 29.5084L73.4275 27.4118H68.8843L68.0178 29.5084H65.6972L70.0586 19.7234H72.2952L76.6705 29.5084H74.2941ZM69.6112 25.6924H72.7146L71.163 21.946L69.6112 25.6924ZM82.2321 29.6763C79.1986 29.6763 76.9341 27.5654 76.9341 24.6159C76.9341 21.6664 79.1986 19.5557 82.2461 19.5557C83.9375 19.5557 85.3492 20.1707 86.2719 21.289L84.8181 22.6309C84.1612 21.8761 83.3363 21.4847 82.3578 21.4847C80.5267 21.4847 79.2268 22.7708 79.2268 24.6159C79.2268 26.4612 80.5267 27.7472 82.3578 27.7472C83.3363 27.7472 84.1612 27.3557 84.8181 26.5869L86.2719 27.9289C85.3492 29.0611 83.9375 29.6763 82.2321 29.6763ZM92.2792 29.6763C89.2459 29.6763 86.9812 27.5654 86.9812 24.6159C86.9812 21.6664 89.2459 19.5557 92.2932 19.5557C93.9846 19.5557 95.3965 20.1707 96.319 21.289L94.8651 22.6309C94.2083 21.8761 93.3834 21.4847 92.4049 21.4847C90.5738 21.4847 89.2738 22.7708 89.2738 24.6159C89.2738 26.4612 90.5738 27.7472 92.4049 27.7472C93.3834 27.7472 94.2083 27.3557 94.8651 26.5869L96.319 27.9289C95.3965 29.0611 93.9846 29.6763 92.2792 29.6763ZM106.515 29.5084H104.083L102.196 26.7826H102.084H100.113V29.5084H97.8482V19.7234H102.084C104.698 19.7234 106.333 21.0793 106.333 23.274C106.333 24.7418 105.593 25.8181 104.32 26.3632L106.515 29.5084ZM104.041 23.274C104.041 22.1976 103.342 21.5686 101.958 21.5686H100.113V24.9794H101.958C103.342 24.9794 104.041 24.3363 104.041 23.274ZM110.378 27.6913H115.704V29.5084H108.128V19.7234H115.522V21.5406H110.378V23.6653H114.921V25.4266H110.378V27.6913ZM117.506 29.5084V19.7234H121.951C125.152 19.7234 127.347 21.6525 127.347 24.6159C127.347 27.5794 125.152 29.5084 121.951 29.5084H117.506ZM119.77 27.6492H121.839C123.782 27.6492 125.054 26.4891 125.054 24.6159C125.054 22.7429 123.782 21.5826 121.839 21.5826H119.77V27.6492ZM129.054 29.5084V19.7234H131.319V29.5084H129.054ZM135.668 29.5084V21.5686H132.537V19.7234H141.064V21.5686H137.933V29.5084H135.668ZM144.533 27.6913H149.859V29.5084H142.282V19.7234H149.677V21.5406H144.533V23.6653H149.076V25.4266H144.533V27.6913ZM151.661 29.5084V19.7234H156.106C159.307 19.7234 161.502 21.6525 161.502 24.6159C161.502 27.5794 159.307 29.5084 156.106 29.5084H151.661ZM153.925 27.6492H155.994C157.937 27.6492 159.209 26.4891 159.209 24.6159C159.209 22.7429 157.937 21.5826 155.994 21.5826H153.925V27.6492ZM74.1684 41.5396C75.2586 41.8892 75.9576 42.7278 75.9576 43.9579C75.9576 45.6494 74.6158 46.6279 72.0436 46.6279H66.9834V36.8428H71.764C74.2103 36.8428 75.4684 37.8634 75.4684 39.387C75.4684 40.3656 74.9651 41.1204 74.1684 41.5396ZM71.4845 38.5482H69.2339V40.8548H71.4845C72.5887 40.8548 73.1899 40.4633 73.1899 39.6945C73.1899 38.9257 72.5887 38.5482 71.4845 38.5482ZM71.876 44.9225C73.05 44.9225 73.6791 44.5591 73.6791 43.7203C73.6791 42.8956 73.05 42.5041 71.876 42.5041H69.2339V44.9225H71.876ZM82.0195 46.7957C79.2378 46.7957 77.5882 45.202 77.5882 42.3226V36.8428H79.8527V42.2386C79.8527 44.0978 80.6634 44.8666 82.0334 44.8666C83.4172 44.8666 84.2141 44.0978 84.2141 42.2386V36.8428H86.4507V42.3226C86.4507 45.202 84.8012 46.7957 82.0195 46.7957ZM91.9035 46.7957C90.3519 46.7957 88.7864 46.3344 87.9196 45.6634L88.6884 43.9579C89.5131 44.5591 90.7432 44.9783 91.9174 44.9783C93.2595 44.9783 93.8046 44.5312 93.8046 43.93C93.8046 42.0989 88.1154 43.357 88.1154 39.7224C88.1154 38.0589 89.4572 36.6752 92.2389 36.6752C93.469 36.6752 94.7273 36.9687 95.6358 37.5417L94.9368 39.2611C94.0283 38.7439 93.0917 38.4923 92.2249 38.4923C90.8831 38.4923 90.3659 38.9956 90.3659 39.6107C90.3659 41.4139 96.0552 40.1698 96.0552 43.7622C96.0552 45.3978 94.6991 46.7957 91.9035 46.7957ZM97.6025 46.6279V36.8428H99.8672V46.6279H97.6025ZM108.927 36.8428H111.164V46.6279H109.304L104.426 40.687V46.6279H102.189V36.8428H104.062L108.927 42.7837V36.8428ZM115.729 44.8108H121.055V46.6279H113.479V36.8428H120.873V38.6601H115.729V40.7848H120.272V42.546H115.729V44.8108ZM126.072 46.7957C124.52 46.7957 122.955 46.3344 122.088 45.6634L122.857 43.9579C123.682 44.5591 124.912 44.9783 126.086 44.9783C127.428 44.9783 127.973 44.5312 127.973 43.93C127.973 42.0989 122.284 43.357 122.284 39.7224C122.284 38.0589 123.626 36.6752 126.408 36.6752C127.638 36.6752 128.896 36.9687 129.804 37.5417L129.105 39.2611C128.197 38.7439 127.26 38.4923 126.394 38.4923C125.051 38.4923 124.534 38.9956 124.534 39.6107C124.534 41.4139 130.224 40.1698 130.224 43.7622C130.224 45.3978 128.868 46.7957 126.072 46.7957ZM134.986 46.7957C133.434 46.7957 131.869 46.3344 131.002 45.6634L131.771 43.9579C132.596 44.5591 133.826 44.9783 135 44.9783C136.342 44.9783 136.887 44.5312 136.887 43.93C136.887 42.0989 131.198 43.357 131.198 39.7224C131.198 38.0589 132.54 36.6752 135.322 36.6752C136.552 36.6752 137.81 36.9687 138.718 37.5417L138.019 39.2611C137.111 38.7439 136.174 38.4923 135.308 38.4923C133.966 38.4923 133.448 38.9956 133.448 39.6107C133.448 41.4139 139.138 40.1698 139.138 43.7622C139.138 45.3978 137.782 46.7957 134.986 46.7957ZM151.955 46.6279L151.088 44.5312H146.545L145.678 46.6279H143.358L147.719 36.8428H149.956L154.331 46.6279H151.955ZM147.272 42.8118H150.375L148.823 39.0654L147.272 42.8118ZM161.379 40.8827V42.5882H158.947V44.9644H157.143V42.5882H154.725V40.8827H157.143V38.5063H158.947V40.8827H161.379Z" fill="#101010"/>
<path d="M173.045 0.563232H5.67972C3.25382 0.563232 1.28723 2.52982 1.28723 4.95572V61.0445C1.28723 63.4704 3.25382 65.437 5.67972 65.437H173.045C175.471 65.437 177.437 63.4704 177.437 61.0445V4.95572C177.437 2.52982 175.471 0.563232 173.045 0.563232Z" stroke="#101010" stroke-width="1.12628"/>
<path fill-rule="evenodd" clip-rule="evenodd" d="M30.12 42.1228C36.4024 42.1228 41.4954 36.8282 41.4954 30.2969C41.4954 23.7656 36.4024 18.4709 30.12 18.4709C23.8376 18.4709 18.7446 23.7656 18.7446 30.2969C18.7446 36.8282 23.8376 42.1228 30.12 42.1228ZM33.3716 41.2939C35.78 40.5591 36.2334 35.0496 34.3843 28.9875C32.5354 22.9256 29.084 18.607 26.6754 19.3417C24.2669 20.0764 23.8135 25.5861 25.6626 31.648C27.5118 37.7098 30.9631 42.0284 33.3716 41.2939Z" fill="#101010"/>
<path d="M56.4749 64.8737V0" stroke="#101010" stroke-width="1.12628"/>
</g>
<defs>
<clipPath id="clip0_541_17114">
<rect width="177.276" height="66" fill="white" transform="translate(0.723633)"/>
</clipPath>
</defs>
</svg>
