<svg width="34" height="46" viewBox="0 0 34 46" fill="none" xmlns="http://www.w3.org/2000/svg">
<path d="M8.38462 37.2825V30.1538H3.46154C2.8087 30.1538 2.1826 29.8945 1.72097 29.4329C1.25934 28.9713 1 28.3451 1 27.6923V10.4615C1 9.8087 1.25934 9.1826 1.72097 8.72097C2.1826 8.25934 2.8087 8 3.46154 8H30.5385C31.1913 8 31.8174 8.25934 32.279 8.72097C32.7407 9.1826 33 9.8087 33 10.4615V27.6923C33 28.3451 32.7407 28.9713 32.279 29.4329C31.8174 29.8945 31.1913 30.1538 30.5385 30.1538H17L9.43569 37.7182C9.34963 37.8044 9.23988 37.8632 9.12036 37.8871C9.00084 37.9109 8.87694 37.8987 8.76435 37.852C8.65177 37.8054 8.55558 37.7263 8.48798 37.6249C8.42037 37.5235 8.3844 37.4043 8.38462 37.2825Z" stroke="black" stroke-width="1.72308"/>
<path d="M8.38461 22.7692H25.6154M8.38461 15.3846H25.6154" stroke="black" stroke-width="1.72308" stroke-linecap="round"/>
</svg>
