<svg width="80" height="80" viewBox="0 0 80 80" fill="none" xmlns="http://www.w3.org/2000/svg">
<path d="M29.9996 73.3363H49.9996C66.6663 73.3363 73.3329 66.6697 73.3329 50.003V30.003C73.3329 13.3363 66.6663 6.66968 49.9996 6.66968H29.9996C13.3329 6.66968 6.66626 13.3363 6.66626 30.003V50.003C6.66626 66.6697 13.3329 73.3363 29.9996 73.3363Z" stroke="#292D32" stroke-width="1.2" stroke-linecap="round" stroke-linejoin="round"/>
<path d="M40.0004 51.6632C46.4437 51.6632 51.6671 46.4398 51.6671 39.9965C51.6671 33.5532 46.4437 28.3298 40.0004 28.3298C33.5571 28.3298 28.3337 33.5532 28.3337 39.9965C28.3337 46.4398 33.5571 51.6632 40.0004 51.6632Z" stroke="#292D32" stroke-width="1.2" stroke-linecap="round" stroke-linejoin="round"/>
<path d="M58.7867 23.3363H58.8252" stroke="#292D32" stroke-width="1.6" stroke-linecap="round" stroke-linejoin="round"/>
</svg>
