<svg width="19" height="19" viewBox="0 0 19 19" fill="none" xmlns="http://www.w3.org/2000/svg">
<path d="M9.49749 6.24445C7.77717 6.24445 6.37327 7.64835 6.37327 9.36867C6.37327 11.089 7.77717 12.4929 9.49749 12.4929C11.2178 12.4929 12.6217 11.089 12.6217 9.36867C12.6217 7.64835 11.2178 6.24445 9.49749 6.24445ZM18.8678 9.36867C18.8678 8.07492 18.8795 6.79288 18.8069 5.50148C18.7342 4.00148 18.392 2.67023 17.2951 1.57335C16.1959 0.474134 14.867 0.134291 13.367 0.0616346C12.0733 -0.0110216 10.7912 0.000697135 9.49983 0.000697135C8.20608 0.000697135 6.92405 -0.0110216 5.63264 0.0616346C4.13264 0.134291 2.80139 0.476478 1.70452 1.57335C0.605299 2.67257 0.265455 4.00148 0.192799 5.50148C0.120143 6.79523 0.131862 8.07726 0.131862 9.36867C0.131862 10.6601 0.120143 11.9444 0.192799 13.2359C0.265455 14.7359 0.607643 16.0671 1.70452 17.164C2.80374 18.2632 4.13264 18.603 5.63264 18.6757C6.92639 18.7484 8.20842 18.7366 9.49983 18.7366C10.7936 18.7366 12.0756 18.7484 13.367 18.6757C14.867 18.603 16.1983 18.2609 17.2951 17.164C18.3944 16.0648 18.7342 14.7359 18.8069 13.2359C18.8819 11.9444 18.8678 10.6624 18.8678 9.36867ZM9.49749 14.1757C6.83733 14.1757 4.69046 12.0288 4.69046 9.36867C4.69046 6.70851 6.83733 4.56163 9.49749 4.56163C12.1576 4.56163 14.3045 6.70851 14.3045 9.36867C14.3045 12.0288 12.1576 14.1757 9.49749 14.1757ZM14.5014 5.48742C13.8803 5.48742 13.3787 4.98585 13.3787 4.36476C13.3787 3.74367 13.8803 3.2421 14.5014 3.2421C15.1225 3.2421 15.6241 3.74367 15.6241 4.36476C15.6242 4.51224 15.5953 4.65831 15.539 4.7946C15.4826 4.93089 15.3999 5.05473 15.2956 5.15901C15.1914 5.2633 15.0675 5.34598 14.9312 5.40234C14.7949 5.45869 14.6489 5.4876 14.5014 5.48742Z" fill="#101010"/>
</svg>
