<svg width="22" height="18" viewBox="0 0 22 18" fill="none" xmlns="http://www.w3.org/2000/svg">
<path d="M21.8688 2.85727C21.5814 3.2878 21.2551 3.691 20.8938 4.06177C20.5308 4.43492 20.1363 4.77617 19.7148 5.08177C19.7284 5.26997 19.7354 5.45858 19.7358 5.64727C19.7358 6.50827 19.6443 7.35877 19.4598 8.20027C19.276 9.03875 19.0076 9.85643 18.6588 10.6408C18.1758 11.7458 17.5373 12.7762 16.7628 13.7008C16.0206 14.5849 15.1511 15.3538 14.1828 15.9823C13.2112 16.6093 12.1522 17.0895 11.0403 17.4073C9.88009 17.7394 8.67867 17.9055 7.47184 17.9008C6.30802 17.9023 5.14991 17.7381 4.03234 17.4133C2.91228 17.0872 1.84634 16.5979 0.868843 15.9613C1.9971 16.0977 3.14118 16.0102 4.23561 15.7039C5.33003 15.3976 6.3533 14.8785 7.24684 14.1763C6.57837 14.1669 5.92148 14.0005 5.3292 13.6904C4.73693 13.3803 4.22588 12.9353 3.83734 12.3913C3.57234 12.0257 3.36633 11.6207 3.22684 11.1913C3.36334 11.2123 3.49834 11.2303 3.63184 11.2438C4.1467 11.2942 4.66644 11.2489 5.16484 11.1103C4.67323 11.0133 4.20286 10.8294 3.77584 10.5673C3.36208 10.313 2.99312 9.9922 2.68384 9.61777C2.04892 8.849 1.70388 7.88182 1.70884 6.88477V6.83527C2.31184 7.17577 2.96434 7.35727 3.66784 7.37827C3.08124 6.9787 2.59963 6.44357 2.26384 5.81827C2.09941 5.50987 1.97202 5.1831 1.88434 4.84477C1.70575 4.12879 1.70936 3.37949 1.89484 2.66527C1.98934 2.30077 2.13634 1.95427 2.33584 1.62577C2.88184 2.30227 3.49084 2.90977 4.15984 3.44527C5.48946 4.5116 7.02583 5.29051 8.67184 5.73277C9.50267 5.95541 10.3551 6.08767 11.2143 6.12727C11.1729 5.96724 11.1438 5.80426 11.1273 5.63977C11.1104 5.47481 11.1019 5.30909 11.1018 5.14327C11.1018 4.54777 11.2143 3.98827 11.4408 3.46627C11.88 2.43481 12.7014 1.61341 13.7328 1.17427C14.2622 0.947707 14.8326 0.832811 15.4083 0.836769C15.9989 0.833896 16.5837 0.953592 17.1256 1.18829C17.6675 1.42298 18.1549 1.76757 18.5568 2.20027C19.5192 2.01028 20.4416 1.65611 21.2838 1.15327C20.9716 2.15282 20.2991 3.00069 19.3968 3.53227C20.25 3.43312 21.0833 3.20607 21.8688 2.85877V2.85727Z" fill="#101010"/>
</svg>
