<svg width="21" height="17" viewBox="0 0 21 17" fill="none" xmlns="http://www.w3.org/2000/svg">
<path fill-rule="evenodd" clip-rule="evenodd" d="M10.8688 0.368652C11.7238 0.368652 12.6008 0.390652 13.4508 0.426652L14.4548 0.474652L15.4158 0.531652L16.3158 0.592652L17.1378 0.656652C18.0299 0.72493 18.8693 1.1056 19.5084 1.73169C20.1474 2.35778 20.5453 3.18919 20.6318 4.07965L20.6718 4.50465L20.7468 5.41465C20.8168 6.35765 20.8688 7.38565 20.8688 8.36865C20.8688 9.35165 20.8168 10.3797 20.7468 11.3227L20.6718 12.2327C20.6588 12.3787 20.6458 12.5197 20.6318 12.6577C20.5452 13.5483 20.1473 14.3798 19.508 15.0059C18.8687 15.632 18.0291 16.0126 17.1368 16.0807L16.3168 16.1437L15.4168 16.2057L14.4548 16.2627L13.4508 16.3107C12.5907 16.348 11.7298 16.3674 10.8688 16.3687C10.0079 16.3674 9.14701 16.348 8.28684 16.3107L7.28284 16.2627L6.32184 16.2057L5.42184 16.1437L4.59984 16.0807C3.70779 16.0124 2.86839 15.6317 2.22932 15.0056C1.59024 14.3795 1.19242 13.5481 1.10584 12.6577L1.06584 12.2327L0.990843 11.3227C0.914381 10.3398 0.873687 9.35447 0.868843 8.36865C0.868843 7.38565 0.920843 6.35765 0.990843 5.41465L1.06584 4.50465C1.07884 4.35865 1.09184 4.21765 1.10584 4.07965C1.19238 3.18935 1.59006 2.35807 2.22893 1.732C2.86781 1.10592 3.70697 0.725155 4.59884 0.656652L5.41984 0.592652L6.31984 0.531652L7.28184 0.474652L8.28584 0.426652C9.14634 0.389285 10.0075 0.369948 10.8688 0.368652ZM8.86884 5.94365V10.7937C8.86884 11.2557 9.36884 11.5437 9.76884 11.3137L13.9688 8.88865C14.0602 8.83604 14.1361 8.76028 14.1889 8.66899C14.2417 8.5777 14.2695 8.4741 14.2695 8.36865C14.2695 8.2632 14.2417 8.15961 14.1889 8.06832C14.1361 7.97703 14.0602 7.90126 13.9688 7.84865L9.76884 5.42465C9.6776 5.37197 9.5741 5.34425 9.46875 5.34427C9.36339 5.34428 9.2599 5.37204 9.16868 5.42475C9.07745 5.47746 9.00172 5.55325 8.94908 5.64452C8.89645 5.73578 8.86878 5.8393 8.86884 5.94465V5.94365Z" fill="#101010"/>
</svg>
