<svg width="16" height="16" viewBox="0 0 16 16" fill="none" xmlns="http://www.w3.org/2000/svg">
<g clip-path="url(#clip0_388_141275)">
<path fill-rule="evenodd" clip-rule="evenodd" d="M7.79774 0C3.49774 0 0 3.58842 0 7.99993C0 9.74948 0.550109 11.372 1.48525 12.689L0.513367 15.6613L3.51144 14.6785C4.74454 15.5157 6.21609 16 7.80226 16C12.1023 16 15.6 12.4114 15.6 8.00007C15.6 3.58857 12.1023 0.000132243 7.80226 0.000132243L7.79774 0ZM5.62018 4.06361C5.46893 3.69209 5.35431 3.67802 5.12518 3.66847C5.04716 3.66382 4.96022 3.65918 4.86383 3.65918C4.56575 3.65918 4.25408 3.74851 4.06609 3.94601C3.83696 4.18586 3.26847 4.74546 3.26847 5.89307C3.26847 7.04067 4.08446 8.15058 4.19443 8.30588C4.30906 8.46091 5.78525 10.8501 8.07731 11.8238C9.86972 12.5857 10.4016 12.5151 10.8095 12.4258C11.4054 12.2941 12.1527 11.8424 12.3407 11.297C12.5287 10.7514 12.5287 10.2857 12.4736 10.187C12.4186 10.0882 12.2672 10.0319 12.0381 9.91421C11.809 9.7966 10.6949 9.23222 10.484 9.15696C10.2776 9.07706 10.0806 9.10533 9.92484 9.33111C9.70477 9.64621 9.48936 9.96611 9.31509 10.1588C9.17756 10.3094 8.95282 10.3282 8.76496 10.2482C8.51281 10.1401 7.80693 9.88593 6.93583 9.09113C6.2619 8.47511 5.80351 7.70858 5.67064 7.47816C5.53764 7.24309 5.65691 7.10651 5.76222 6.97961C5.87685 6.83374 5.98684 6.73034 6.10147 6.59389C6.2161 6.45758 6.28027 6.38696 6.35363 6.22702C6.43164 6.07186 6.37652 5.91191 6.32153 5.79431C6.26655 5.67671 5.80816 4.5291 5.62018 4.06361Z" fill="#0DCF7D"/>
</g>
<defs>
<clipPath id="clip0_388_141275">
<rect width="15.6" height="16" fill="white"/>
</clipPath>
</defs>
</svg>
